<svg width="168" height="160" viewBox="0 0 168 160" fill="none" xmlns="http://www.w3.org/2000/svg">
<path d="M152.504 13.6495C158.604 26.5495 152.904 48.9495 154.804 64.5495C156.604 80.0495 166.104 88.8495 167.404 98.0495C168.604 107.249 161.704 116.849 154.704 128.349C147.604 139.849 140.504 153.049 129.904 157.449C119.304 161.749 105.404 157.349 91.1035 153.449C76.8035 149.449 62.2035 146.049 55.0035 136.749C47.9035 127.449 48.2035 112.249 44.2035 96.5495C40.2035 80.8495 31.9035 64.6495 36.2035 53.7495C40.4035 42.8495 57.2035 37.1495 71.7035 28.0495C86.1035 18.9495 98.3035 6.44947 113.304 1.94947C128.404 -2.65053 146.404 0.749471 152.504 13.6495Z" fill="#1D42C5"/>
<g opacity="0.4">
<path d="M117.504 13.6495C123.604 26.5495 117.904 48.9495 119.804 64.5495C121.604 80.0495 131.104 88.8495 132.404 98.0495C133.604 107.249 126.704 116.849 119.704 128.349C112.604 139.849 105.504 153.049 94.9035 157.449C84.3035 161.749 70.4035 157.349 56.1035 153.449C41.8035 149.449 27.2035 146.049 20.0035 136.749C12.9035 127.449 13.2035 112.249 9.20353 96.5495C5.20353 80.8495 -3.09647 64.6495 1.20353 53.7495C5.40353 42.8495 22.2035 37.1495 36.7035 28.0495C51.1035 18.9495 63.3035 6.44947 78.3035 1.94947C93.4035 -2.65053 111.404 0.749471 117.504 13.6495Z" fill="#1D42C5"/>
</g>
</svg>
